<svg width="35" height="15" fill="none" xmlns="http://www.w3.org/2000/svg"><mask id="a" maskUnits="userSpaceOnUse" x="0" y="0" width="35" height="15"><path d="M.7.737V14.78h34.279V.737H.699z" fill="#fff"/></mask><g mask="url(#a)"><path d="M30.778 6.731h2.573V.737h-2.744v.958l-.606-.958h-2.393V1.95L27.076.737H23.12c-.192 0-.372.01-.553.042a2.267 2.267 0 00-.447.107 1.765 1.765 0 00-.33.127 1.885 1.885 0 00-.35.203V.747H8.527L8.145 1.78 7.783.737h-3.01V1.96L4.231.737H1.774L.7 3.292v3.429h1.733l.32-.863h.606l.33.863h13.358v-.873l.67.873h3.69v-.437c.096.064.192.117.298.16.096.042.202.085.309.117.127.043.255.074.393.096.213.042.426.053.628.053h2.212l.319-.862h.606l.33.862h3.701v-.894l.575.915zm4.2 7.688V8.797h-21.26l-.543.767-.531-.767H6.528v5.995h6.094l.532-.778.553.778h3.818v-1.3h-.042c.479 0 .904-.085 1.287-.223v1.523h2.659v-.873l.67.873h11.54c.33 0 .638-.054.925-.16.127-.064.276-.128.415-.213z" fill="#F7F7F7"/><mask id="b" maskUnits="userSpaceOnUse" x="7" y="9" width="28" height="5"><path d="M35 13.815V9.768H7.453v4.046H35z" fill="#fff"/></mask><g mask="url(#b)"><path d="M33.639 13.005h-2.074v.81h2.042c.872 0 1.393-.533 1.393-1.289 0-.724-.468-1.14-1.255-1.14h-.936c-.234 0-.393-.148-.393-.382 0-.245.159-.405.393-.405h1.755l.361-.82h-2.084c-.872 0-1.393.532-1.393 1.256 0 .746.489 1.172 1.255 1.172h.925c.234 0 .394.149.394.394.01.234-.15.404-.383.404zm-3.84 0h-2.074v.81h2.042c.872 0 1.393-.533 1.393-1.289 0-.724-.468-1.14-1.255-1.14h-.936c-.234 0-.393-.148-.393-.382 0-.245.16-.405.393-.405h1.755l.362-.82h-2.085c-.872 0-1.393.532-1.393 1.256 0 .746.49 1.172 1.255 1.172h.925c.234 0 .394.149.394.394a.375.375 0 01-.383.404zm-2.659-2.417v-.82h-3.233v4.046h3.233v-.82h-2.265v-.809h2.212v-.809h-2.212v-.788h2.265zm-5.413 0c.35 0 .531.224.531.5 0 .278-.18.501-.531.501h-1.139v-1h1.139zm-1.139 1.768h.458l1.202 1.459h1.201l-1.34-1.491c.692-.128 1.096-.628 1.096-1.267 0-.756-.532-1.278-1.393-1.278H19.62v4.046h.968v-1.47zm-2.467-1.235c0 .276-.17.5-.51.5h-1.16v-.99h1.16c.33 0 .51.213.51.49zm-2.648-1.353v4.046h.967v-1.33h1.213c.883 0 1.436-.575 1.436-1.353 0-.798-.532-1.352-1.393-1.352h-2.223v-.01zm-1.426 4.046h1.213l-1.617-2.033 1.606-2.002h-1.18l-.99 1.278-.989-1.278h-1.212l1.617 2.023-1.606 2.023h1.18l.99-1.299.989 1.289zm-3.36-3.226v-.82H7.453v4.046h3.234v-.82H8.42v-.809h2.212v-.809H8.421v-.788h2.266z" fill="#006FCF"/></g><path d="M29.427 3.334l-.01-.33.201.33 1.542 2.417h1.128V1.705h-.947v2.343l.01.298-.18-.298-1.51-2.343H28.47v4.046h.946V3.334h.01zm-3.861-.117l.298-.756.298.756.361.895h-1.297l.34-.895zm1.606 2.534h1.085l-1.723-4.046h-1.276l-1.734 4.046h1.032l.34-.862h1.925l.351.862zm-4.233 0h.053l.394-.862h-.298c-.66 0-1.053-.415-1.053-1.129v-.064c0-.638.35-1.118 1.042-1.118h1.053v-.873h-1.127c-1.245 0-1.925.841-1.925 1.991v.075c0 1.193.702 1.97 1.861 1.98zm-3.446 0h.968V1.705h-.968v4.046zm-2.031-3.215c.35 0 .531.223.531.5s-.18.5-.531.5h-1.139v-1h1.139zm-1.139 1.757h.458l1.202 1.458h1.202l-1.34-1.49c.69-.128 1.095-.628 1.095-1.267 0-.756-.532-1.278-1.393-1.278h-2.191v4.046h.967v-1.47zm-1.68-1.768v-.82H11.41v4.046h3.233v-.83h-2.265v-.799h2.212v-.809h-2.212v-.788h2.265zm-8.03.469l-.021-1.097 1.117 3.854h.872l1.116-3.833-.02 1.065v2.768h.935V1.705H8.9L8.134 4.57l-.776-2.865H5.656v4.046h.936V2.994h.021zm-3.86.223l.297-.756.298.756.361.895H2.401l.351-.895zm1.605 2.534h1.096L3.73 1.705H2.454L.721 5.751h1.031l.34-.862h1.926l.34.862z" fill="#006FCF"/></g></svg>