<svg width="16" height="17" fill="none" xmlns="http://www.w3.org/2000/svg"><path d="M7.512 6.453v2.125c.812.187 1.531.5 2.281.719V7.172c-.812-.188-1.531-.5-2.281-.72zm6.969-3.844c-1.063.5-2.375 1-3.656 1-1.657 0-3.063-1.094-5.157-1.094-.781 0-1.469.157-2.125.375.094-.218.125-.468.094-.718C3.606 1.265 2.856.578 1.981.515c-1-.03-1.813.782-1.813 1.75 0 .594.281 1.125.75 1.438v12.062c0 .438.313.75.75.75h.5a.74.74 0 00.75-.75v-2.937c.875-.375 1.969-.688 3.563-.688 1.687 0 3.062 1.094 5.156 1.094 1.5 0 2.719-.531 3.844-1.281.25-.188.406-.5.406-.844V3.515c.031-.718-.75-1.187-1.406-.906zm-9.282 8.094c-.812.094-1.562.25-2.28.531V9.015c.812-.28 1.468-.468 2.28-.53v2.218zm9.22-4.219c-.75.313-1.47.625-2.313.75v2.219c.781-.094 1.594-.344 2.312-.813v2.22c-.812.5-1.531.78-2.312.843v-2.25c-.844.125-1.5.062-2.313-.156v2.093c-.75-.218-1.469-.5-2.281-.656V8.578c-.625-.125-1.281-.188-2.313-.094V6.297c-.687.093-1.375.312-2.28.656V4.734c1.03-.375 1.562-.625 2.28-.687v2.25c.844-.125 1.532-.063 2.313.156V4.359c.719.219 1.469.531 2.281.656v2.157c.75.156 1.5.218 2.313.062v-2.25c.844-.125 1.625-.406 2.312-.687v2.187z" fill="#fff"/></svg>