<svg width="78" height="41" fill="none" xmlns="http://www.w3.org/2000/svg"><path d="M1.034 20.392h31.392l-1.034 2.77H0l1.034-2.77z" fill="url(#a)"/><path fill-rule="evenodd" clip-rule="evenodd" d="m1.728 21.392-.287.77h29.257l.287-.77H1.728zm-.694-1L0 23.162h31.392l1.034-2.77H1.034z" fill="url(#b)"/><path d="M5.944 13.374h28.698l-1.036 2.585H4.908l1.036-2.585z" fill="url(#c)"/><path fill-rule="evenodd" clip-rule="evenodd" d="m6.62 14.374-.234.585h26.543l.235-.585H6.62zm-.676-1-1.036 2.585h28.698l1.036-2.585H5.944z" fill="url(#d)"/><path d="M20.723 6.171h15.95l-1.04 2.77h-15.95l1.04-2.77z" fill="url(#e)"/><path fill-rule="evenodd" clip-rule="evenodd" d="m21.415 7.171-.289.77h13.815l.289-.77H21.415zm-.692-1-1.04 2.77h15.95l1.04-2.77h-15.95z" fill="url(#f)"/><path d="M58.466 7.211v15.951l-2.77-1.04V6.172l2.77 1.04z" fill="url(#g)"/><path fill-rule="evenodd" clip-rule="evenodd" d="m57.466 7.904-.77-.29V21.43l.77.29V7.904zm1-.693-2.77-1.04v15.951l2.77 1.04V7.212z" fill="url(#h)"/><path d="m58.485 21.187 5.91 5.233-2.79.99-5.91-5.233 2.79-.99z" fill="url(#i)"/><path fill-rule="evenodd" clip-rule="evenodd" d="m58.263 22.327-.635.225 4.2 3.718.634-.225-4.199-3.718zm.222-1.14-2.79.99 5.91 5.233 2.79-.99-5.91-5.233z" fill="url(#j)"/><path d="M8.903 27.595h25.739l-1.04 2.77H7.861l1.041-2.77z" fill="url(#k)"/><path fill-rule="evenodd" clip-rule="evenodd" d="m9.596 28.595-.29.77H32.91l.29-.77H9.595zm-.693-1-1.04 2.77H33.6l1.04-2.77H8.904z" fill="url(#l)"/><path d="M26.825 34.797h9.848l-1.047 2.77h-9.849l1.048-2.77z" fill="url(#m)"/><path fill-rule="evenodd" clip-rule="evenodd" d="m27.516 35.797-.292.77h7.71l.292-.77h-7.71zm-.691-1-1.048 2.77h9.849l1.047-2.77h-9.848z" fill="url(#n)"/><path fill-rule="evenodd" clip-rule="evenodd" d="M57.173 38c9.665 0 17.5-7.835 17.5-17.5S66.838 3 57.173 3s-17.5 7.835-17.5 17.5S47.508 38 57.173 38zm0 3c11.322 0 20.5-9.178 20.5-20.5S68.495 0 57.173 0c-11.321 0-20.5 9.178-20.5 20.5S45.852 41 57.173 41z" fill="url(#o)"/><defs><linearGradient id="h" x1="-3.236" y1="20.164" x2="81.159" y2="20.164" gradientUnits="userSpaceOnUse"><stop stop-color="#5B40D7"/><stop offset="1" stop-color="#E85F62"/></linearGradient><linearGradient id="a" x1="-3.236" y1="20.164" x2="81.159" y2="20.164" gradientUnits="userSpaceOnUse"><stop stop-color="#5B40D7"/><stop offset="1" stop-color="#E85F62"/></linearGradient><linearGradient id="c" x1="-3.236" y1="20.164" x2="81.159" y2="20.164" gradientUnits="userSpaceOnUse"><stop stop-color="#5B40D7"/><stop offset="1" stop-color="#E85F62"/></linearGradient><linearGradient id="d" x1="-3.236" y1="20.164" x2="81.159" y2="20.164" gradientUnits="userSpaceOnUse"><stop stop-color="#5B40D7"/><stop offset="1" stop-color="#E85F62"/></linearGradient><linearGradient id="e" x1="-3.236" y1="20.164" x2="81.159" y2="20.164" gradientUnits="userSpaceOnUse"><stop stop-color="#5B40D7"/><stop offset="1" stop-color="#E85F62"/></linearGradient><linearGradient id="f" x1="-3.236" y1="20.164" x2="81.159" y2="20.164" gradientUnits="userSpaceOnUse"><stop stop-color="#5B40D7"/><stop offset="1" stop-color="#E85F62"/></linearGradient><linearGradient id="g" x1="-3.236" y1="20.164" x2="81.159" y2="20.164" gradientUnits="userSpaceOnUse"><stop stop-color="#5B40D7"/><stop offset="1" stop-color="#E85F62"/></linearGradient><linearGradient id="b" x1="-3.236" y1="20.164" x2="81.159" y2="20.164" gradientUnits="userSpaceOnUse"><stop stop-color="#5B40D7"/><stop offset="1" stop-color="#E85F62"/></linearGradient><linearGradient id="i" x1="-3.236" y1="20.164" x2="81.159" y2="20.164" gradientUnits="userSpaceOnUse"><stop stop-color="#5B40D7"/><stop offset="1" stop-color="#E85F62"/></linearGradient><linearGradient id="j" x1="-3.236" y1="20.164" x2="81.159" y2="20.164" gradientUnits="userSpaceOnUse"><stop stop-color="#5B40D7"/><stop offset="1" stop-color="#E85F62"/></linearGradient><linearGradient id="k" x1="-3.236" y1="20.164" x2="81.159" y2="20.164" gradientUnits="userSpaceOnUse"><stop stop-color="#5B40D7"/><stop offset="1" stop-color="#E85F62"/></linearGradient><linearGradient id="l" x1="-3.236" y1="20.164" x2="81.159" y2="20.164" gradientUnits="userSpaceOnUse"><stop stop-color="#5B40D7"/><stop offset="1" stop-color="#E85F62"/></linearGradient><linearGradient id="m" x1="-3.236" y1="20.164" x2="81.159" y2="20.164" gradientUnits="userSpaceOnUse"><stop stop-color="#5B40D7"/><stop offset="1" stop-color="#E85F62"/></linearGradient><linearGradient id="n" x1="-3.236" y1="20.164" x2="81.159" y2="20.164" gradientUnits="userSpaceOnUse"><stop stop-color="#5B40D7"/><stop offset="1" stop-color="#E85F62"/></linearGradient><linearGradient id="o" x1="-3.236" y1="20.164" x2="81.159" y2="20.164" gradientUnits="userSpaceOnUse"><stop stop-color="#5B40D7"/><stop offset="1" stop-color="#E85F62"/></linearGradient></defs></svg>