<svg width="39" height="34" viewBox="0 0 39 34" fill="none" xmlns="http://www.w3.org/2000/svg">
<path d="M1.01068 3L39 3L37.9893 5.66667L0 5.66666L1.01068 3Z" fill="url(#paint0_linear)"/>
<path d="M1.01068 15.6667L39 15.6668L37.9893 18.3334L4.15748e-06 18.3334L1.01068 15.6667Z" fill="url(#paint1_linear)"/>
<path d="M1.01068 28L39 28L37.9893 30.6667L4.15748e-06 30.6667L1.01068 28Z" fill="url(#paint2_linear)"/>
<circle cx="12.6666" cy="4.33333" r="4.33333" fill="url(#paint3_linear)"/>
<circle cx="12.8333" cy="4.5" r="2.5" fill="white"/>
<circle cx="12.6666" cy="29.3333" r="4.33333" fill="url(#paint4_linear)"/>
<circle cx="21.1667" cy="16.8334" r="4.16667" fill="url(#paint5_linear)"/>
<circle cx="21.1666" cy="16.8333" r="2.5" fill="white"/>
<ellipse cx="12.8333" cy="29.3334" rx="2.5" ry="2.66667" fill="white"/>
<defs>
<linearGradient id="paint0_linear" x1="-1.625" y1="9.88525" x2="40.75" y2="9.88525" gradientUnits="userSpaceOnUse">
<stop stop-color="#5B40D7"/>
<stop offset="1" stop-color="#E85F62"/>
</linearGradient>
<linearGradient id="paint1_linear" x1="-1.625" y1="16.9782" x2="40.75" y2="16.9782" gradientUnits="userSpaceOnUse">
<stop stop-color="#5B40D7"/>
<stop offset="1" stop-color="#E85F62"/>
</linearGradient>
<linearGradient id="paint2_linear" x1="-1.625" y1="29.3115" x2="40.75" y2="29.3115" gradientUnits="userSpaceOnUse">
<stop stop-color="#5B40D7"/>
<stop offset="1" stop-color="#E85F62"/>
</linearGradient>
<linearGradient id="paint3_linear" x1="7.9722" y1="4.2623" x2="17.3889" y2="4.2623" gradientUnits="userSpaceOnUse">
<stop stop-color="#5B40D7"/>
<stop offset="1" stop-color="#E85F62"/>
</linearGradient>
<linearGradient id="paint4_linear" x1="7.9722" y1="29.2623" x2="17.3889" y2="29.2623" gradientUnits="userSpaceOnUse">
<stop stop-color="#5B40D7"/>
<stop offset="1" stop-color="#E85F62"/>
</linearGradient>
<linearGradient id="paint5_linear" x1="16.6528" y1="16.7651" x2="25.7073" y2="16.7651" gradientUnits="userSpaceOnUse">
<stop stop-color="#5B40D7"/>
<stop offset="1" stop-color="#E85F62"/>
</linearGradient>
</defs>
</svg>
