<svg width="50" height="44" fill="none" xmlns="http://www.w3.org/2000/svg"><mask id="a" fill="#fff"><path d="M34.037 37.805v-2.298l-.897.342a1.847 1.847 0 01-1.979-.415l-1.702-1.699-.87.5a14.622 14.622 0 01-3.497 1.45l-.976.263v2.398a1.86 1.86 0 01-1.86 1.857H20.33a1.86 1.86 0 01-1.86-1.858v-2.397l-.977-.263a14.51 14.51 0 01-3.496-1.45l-.87-.5-.357.356-1.358 1.337c-.35.349-.818.54-1.313.54s-.963-.191-1.313-.54l-1.365-1.364a1.858 1.858 0 010-2.628l1.695-1.692-.501-.87a14.576 14.576 0 01-1.451-3.49l-.264-.975H4.499a1.86 1.86 0 01-1.86-1.857v-1.937a1.86 1.86 0 011.86-1.857h2.4l.265-.975c.33-1.225.818-2.397 1.45-3.49l.502-.87-.356-.356-1.34-1.343a1.858 1.858 0 010-2.628l1.366-1.364c.35-.349.818-.54 1.313-.54s.963.191 1.313.54l1.695 1.693.87-.5a14.621 14.621 0 013.497-1.45l.976-.263v-2.39a1.86 1.86 0 011.86-1.858h1.926a1.86 1.86 0 011.86 1.857V7.22l.977.263c1.226.33 2.4.817 3.496 1.449l.066.04.982.566.007-1.133c0-.454.033-.915.099-1.363l.066-.455-.41-.217c-.85-.448-1.734-.83-2.644-1.133v-.408A4.5 4.5 0 0022.236.336H20.31a4.5 4.5 0 00-4.499 4.492v.408a16.44 16.44 0 00-2.256.935l-.29-.29a4.497 4.497 0 00-3.18-1.317c-1.2 0-2.334.468-3.179 1.318L5.541 7.245a4.456 4.456 0 00-1.32 3.174c0 1.2.469 2.332 1.32 3.175l.29.29a17.25 17.25 0 00-.937 2.253h-.409C2.018 16.123 0 18.139 0 20.614v1.923a4.5 4.5 0 004.499 4.492h.409c.257.77.567 1.528.936 2.253l-.29.29a4.456 4.456 0 00-1.32 3.174c0 1.199.47 2.332 1.32 3.175l1.366 1.363a4.47 4.47 0 003.179 1.317 4.48 4.48 0 003.18-1.31l.29-.29c.725.362 1.484.678 2.255.935v.409a4.5 4.5 0 004.5 4.491h1.925a4.5 4.5 0 004.499-4.492v-.408a16.43 16.43 0 002.256-.935l.29.29c.851.85 1.979 1.31 3.18 1.31.356 0 .712-.04 1.055-.125l.514-.125-.006-.527v-.02zM28.99 8.03c-.007.118-.007.243-.007.362-.007-.119 0-.244.007-.362zM10.059 5.216a3.849 3.849 0 010 0zm.264 31.397zm22.15 1.33h-.02H32.475z"/><path d="M21.286 11c-5.534 0-10.033 4.498-10.033 10.017 0 5.526 4.499 10.018 10.033 10.018S31.32 26.543 31.32 21.017c0-5.526-4.498-10.018-10.033-10.018zm0 17.4c-4.076 0-7.394-3.313-7.394-7.383s3.318-7.383 7.394-7.383c4.077 0 7.395 3.313 7.395 7.383S25.363 28.4 21.286 28.4zM48.865 3.846a9.843 9.843 0 00-3.02-3.438A2.259 2.259 0 0044.557 0a2.243 2.243 0 00-2.243 2.24v5.828c0 .106-.006.204-.02.303a2.155 2.155 0 01-2.124 1.838H40.1c-1.121-.04-2.071-1.047-2.071-2.2V2.476A2.369 2.369 0 0034.24.586a9.994 9.994 0 00-2.856 3.418A9.861 9.861 0 0030.33 8.49a9.8 9.8 0 001.477 5.11 9.9 9.9 0 002.916 3.004v21.122c0 2.997 2.44 5.434 5.442 5.434a5.443 5.443 0 005.442-5.434V16.617A9.808 9.808 0 0050 8.437a9.734 9.734 0 00-1.135-4.59zm-5.052 11.54l-.178.092v22.248c0 .165-.014.33-.033.488-.238 1.693-1.715 2.97-3.43 2.97a3.464 3.464 0 01-3.464-3.458V15.471l-.178-.092c-2.586-1.363-4.202-4.004-4.215-6.902a7.786 7.786 0 013.127-6.31.359.359 0 01.224-.08c.185 0 .39.146.39.39v5.525c0 1.06.415 2.088 1.167 2.879.758.796 1.761 1.258 2.816 1.297h.139c2.045 0 3.8-1.521 4.083-3.537.026-.19.04-.388.04-.58V2.24c0-.164.138-.263.264-.263.052 0 .099.013.145.046a7.85 7.85 0 013.324 6.408 7.844 7.844 0 01-4.221 6.956z"/></mask><path d="M34.037 37.805v-2.298l-.897.342a1.847 1.847 0 01-1.979-.415l-1.702-1.699-.87.5a14.622 14.622 0 01-3.497 1.45l-.976.263v2.398a1.86 1.86 0 01-1.86 1.857H20.33a1.86 1.86 0 01-1.86-1.858v-2.397l-.977-.263a14.51 14.51 0 01-3.496-1.45l-.87-.5-.357.356-1.358 1.337c-.35.349-.818.54-1.313.54s-.963-.191-1.313-.54l-1.365-1.364a1.858 1.858 0 010-2.628l1.695-1.692-.501-.87a14.576 14.576 0 01-1.451-3.49l-.264-.975H4.499a1.86 1.86 0 01-1.86-1.857v-1.937a1.86 1.86 0 011.86-1.857h2.4l.265-.975c.33-1.225.818-2.397 1.45-3.49l.502-.87-.356-.356-1.34-1.343a1.858 1.858 0 010-2.628l1.366-1.364c.35-.349.818-.54 1.313-.54s.963.191 1.313.54l1.695 1.693.87-.5a14.621 14.621 0 013.497-1.45l.976-.263v-2.39a1.86 1.86 0 011.86-1.858h1.926a1.86 1.86 0 011.86 1.857V7.22l.977.263c1.226.33 2.4.817 3.496 1.449l.066.04.982.566.007-1.133c0-.454.033-.915.099-1.363l.066-.455-.41-.217c-.85-.448-1.734-.83-2.644-1.133v-.408A4.5 4.5 0 0022.236.336H20.31a4.5 4.5 0 00-4.499 4.492v.408a16.44 16.44 0 00-2.256.935l-.29-.29a4.497 4.497 0 00-3.18-1.317c-1.2 0-2.334.468-3.179 1.318L5.541 7.245a4.456 4.456 0 00-1.32 3.174c0 1.2.469 2.332 1.32 3.175l.29.29a17.25 17.25 0 00-.937 2.253h-.409C2.018 16.123 0 18.139 0 20.614v1.923a4.5 4.5 0 004.499 4.492h.409c.257.77.567 1.528.936 2.253l-.29.29a4.456 4.456 0 00-1.32 3.174c0 1.199.47 2.332 1.32 3.175l1.366 1.363a4.47 4.47 0 003.179 1.317 4.48 4.48 0 003.18-1.31l.29-.29c.725.362 1.484.678 2.255.935v.409a4.5 4.5 0 004.5 4.491h1.925a4.5 4.5 0 004.499-4.492v-.408a16.43 16.43 0 002.256-.935l.29.29c.851.85 1.979 1.31 3.18 1.31.356 0 .712-.04 1.055-.125l.514-.125-.006-.527v-.02zM28.99 8.03c-.007.118-.007.243-.007.362-.007-.119 0-.244.007-.362zM10.059 5.216a3.849 3.849 0 010 0zm.264 31.397zm22.15 1.33h-.02H32.475z" fill="url(#paint0_linear)"/><path d="M21.286 11c-5.534 0-10.033 4.498-10.033 10.017 0 5.526 4.499 10.018 10.033 10.018S31.32 26.543 31.32 21.017c0-5.526-4.498-10.018-10.033-10.018zm0 17.4c-4.076 0-7.394-3.313-7.394-7.383s3.318-7.383 7.394-7.383c4.077 0 7.395 3.313 7.395 7.383S25.363 28.4 21.286 28.4z" fill="url(#paint1_linear)"/><path d="M48.865 3.846a9.843 9.843 0 00-3.02-3.438A2.259 2.259 0 0044.557 0a2.243 2.243 0 00-2.243 2.24v5.828c0 .106-.006.204-.02.303a2.155 2.155 0 01-2.124 1.838H40.1c-1.121-.04-2.071-1.047-2.071-2.2V2.476A2.369 2.369 0 0034.24.586a9.994 9.994 0 00-2.856 3.418A9.861 9.861 0 0030.33 8.49a9.8 9.8 0 001.477 5.11 9.9 9.9 0 002.916 3.004v21.122c0 2.997 2.44 5.434 5.442 5.434a5.443 5.443 0 005.442-5.434V16.617A9.808 9.808 0 0050 8.437a9.734 9.734 0 00-1.135-4.59zm-5.052 11.54l-.178.092v22.248c0 .165-.014.33-.033.488-.238 1.693-1.715 2.97-3.43 2.97a3.464 3.464 0 01-3.464-3.458V15.471l-.178-.092c-2.586-1.363-4.202-4.004-4.215-6.902a7.786 7.786 0 013.127-6.31.359.359 0 01.224-.08c.185 0 .39.146.39.39v5.525c0 1.06.415 2.088 1.167 2.879.758.796 1.761 1.258 2.816 1.297h.139c2.045 0 3.8-1.521 4.083-3.537.026-.19.04-.388.04-.58V2.24c0-.164.138-.263.264-.263.052 0 .099.013.145.046a7.85 7.85 0 013.324 6.408 7.844 7.844 0 01-4.221 6.956z" fill="url(#paint2_linear)"/><path d="M25.257 36.317l.26.965.008-.001.007-.002-.275-.962zm-.26-.966l-.488.132.52 1.931.489-.132-.521-1.93zm.535 1.928l.415-.119-.549-1.923-.415.118.549 1.924zm8.505-1.772h2v-2.905l-2.713 1.036.713 1.869zm-.897.342l.701 1.873.012-.004-.713-1.869zm-1.98-.415l-1.412 1.416 1.413-1.416zm-1.7-1.699l1.412-1.415-1.083-1.082-1.327.763.997 1.734zm-.872.5l-.996-1.733-.004.002 1 1.732zm-3.496 1.45l.521 1.93-.52-1.93zm-.976.263l-.521-1.93-1.479.398v1.532h2zm-5.646 0h2v-1.532l-1.48-.399-.52 1.931zm-.977-.263l.522-1.931-.003-.001-.519 1.932zm-3.496-1.45l1-1.731-.003-.002-.997 1.734zm-.87-.5l.996-1.734-1.326-.763-1.084 1.082 1.414 1.415zm-.357.356l1.403 1.425.005-.005.006-.005-1.414-1.415zm-1.358 1.337l-1.403-1.426-.005.005-.006.006 1.414 1.415zm-2.626 0l1.413-1.415-1.413 1.415zm-1.365-1.364l1.413-1.415-1.413 1.415zm0-2.628l-1.413-1.415 1.413 1.415zm1.695-1.692l1.413 1.415 1.087-1.084-.767-1.33-1.733.999zm-.501-.87l1.732-.999-.002-.003-1.73 1.002zm-1.451-3.49l1.93-.523-1.93.523zm-.264-.975l1.93-.523-.4-1.477H6.9v2zm0-5.651v2h1.53l.4-1.478-1.93-.522zm.264-.975l1.93.523v-.003l-1.93-.52zm1.45-3.49l1.731 1.002.002-.004-1.732-.999zm.502-.87l1.733.999.767-1.33-1.087-1.084-1.413 1.415zm-.356-.356L7.343 14.48l.004.004 1.413-1.416zm-1.34-1.343l1.417-1.412-.003-.004-1.413 1.416zm0-2.628L6.009 7.68 7.42 9.096zm1.366-1.364L7.373 6.317l1.413 1.415zm2.626 0l1.413-1.415-1.413 1.415zm1.695 1.693l-1.413 1.415 1.083 1.082 1.327-.763-.997-1.734zm.87-.5l.997 1.733.004-.002-1-1.732zm3.497-1.45l-.521-1.93.52 1.93zm.976-.263l.52 1.93 1.48-.398V7.212h-2zm5.646.007h-2V8.75l1.48.4.52-1.931zm.977.263l-.522 1.931h.003l.519-1.931zm3.496 1.449l1.027-1.716-.013-.008-.014-.008-1 1.732zm.066.04l-1.028 1.715.014.009.015.008.998-1.732zm.982.566l-.998 1.733 2.978 1.716.02-3.437-2-.012zm.007-1.133l2 .012v-.012h-2zm.099-1.363l1.979.291v-.004l-1.98-.287zm.066-.455l1.98.288.201-1.393-1.242-.66-.94 1.765zm-.41-.217l.94-1.766-.008-.004-.931 1.77zm-2.644-1.133h-2v1.442l1.368.456.632-1.898zm-10.924 0l.632 1.898 1.368-.456V5.236h-2zm-2.256.935l-1.413 1.416 1.027 1.025 1.293-.658-.907-1.783zm-.29-.29l1.413-1.415-1.413 1.416zm-3.18-1.317l.012-2h-.011v2zM6.907 5.882L8.32 7.297l.006-.006-1.419-1.41zM5.541 7.245L6.954 8.66 5.541 7.245zm0 6.35l1.413-1.416-.005-.006-1.408 1.421zm.29.289l1.788.896.647-1.291-1.022-1.02-1.413 1.415zm-.937 2.253v2h1.441l.457-1.367-1.898-.633zm-.409 0l-.01 2h.01v-2zm.423 10.893l1.897-.633-.457-1.367h-1.44v2zm.936 2.253l1.413 1.415 1.03-1.028-.66-1.296-1.783.909zm-.29.29l-1.413-1.416 1.413 1.416zm0 6.349l1.413-1.416-.005-.005-1.408 1.42zm1.366 1.363L5.506 38.7l1.414-1.415zm6.358.007l1.413 1.415-1.413-1.415zm.29-.29l.894-1.79-1.288-.643-1.019 1.018 1.414 1.415zm2.257.935h2v-1.442l-1.369-.456-.631 1.898zm10.923 0l-.632-1.898-1.368.456v1.442h2zm2.256-.935l1.413-1.415-1.026-1.025-1.293.657.906 1.783zm.29.29l-1.413 1.415 1.413-1.415zm4.235 1.185l-.473-1.943-.011.003.484 1.94zm.514-.125l.473 1.943 1.547-.376-.02-1.592-2 .025zm-.006-.527h-2v.025l2-.025zM28.984 8.391l-1.997.111 3.997-.111h-2zM10.06 5.216l.027 2-.04-4 .013 2zm.264 31.397l-.185-1.991.347 3.985-.162-1.994zM48.865 3.846l-1.769.933.003.006 1.766-.939zM45.845.408l1.153-1.634-.01-.006-.01-.007L45.845.408zm-3.55 7.963l1.98.287.001-.011.002-.011-1.983-.265zM40.1 10.21l-.07 1.998.035.002h.035v-2zM34.24.586l-1.194-1.604-.009.007-.008.006L34.24.586zm-2.856 3.418l1.783.906.002-.003-1.785-.903zM30.33 8.49l-2 .008v.006l2-.014zm1.477 5.11l1.7-1.053-.002-.004-1.698 1.058zm2.916 3.004h2v-1.071l-.892-.594-1.108 1.665zm9.024 25.212l-1.314-1.508-.007.006 1.32 1.502zm1.807-3.326l1.98.285.001-.012.002-.011-1.983-.262zm.053-21.873l-1.11-1.663-.89.594v1.07h2zm2.928-3.023l-1.7-1.051-.002.002 1.703 1.05zM50 8.437l-2-.008v.008h2zm-6.187 6.949l.92 1.776.005-.003-.925-1.773zm-.178.092l-.92-1.776-1.08.56v1.216h2zm-.033 22.736l1.98.278.002-.015.002-.015-1.984-.248zM36.708 15.47h2v-1.216l-1.08-.56-.92 1.776zm-.178-.092l-.933 1.77.007.003.007.003.92-1.776zm-4.215-6.902l2-.01v-.001l-2 .01zm3.127-6.31l1.205 1.596.022-.016.021-.017-1.248-1.563zm1.78 8.714l-1.448 1.378 1.449-1.378zm2.817 1.297l-.074 1.999.037.001h.037v-2zm4.222-3.537l1.98.279.001-.005-1.98-.274zm.449-6.619L43.548 3.65l.01.007 1.152-1.635zm3.324 6.408l2 .005V8.43h-2zM36.037 37.805v-.001-.001-.001-.001-.001-.001-.001-.001-.001-.001-.001-.001-.001-.001-.001-.001-.001-.001-.001-.001-.001-.001-.001-.001-.001-.001-.001-.001-.001-.001-.001-.001-.001-.001-.001-.001-.001-.001-.001-.001-.001-.001-.001-.001-.001-.001-.001-.001-.001-.001-.001-.001-.001-.001-.001-.001-.001-.001-.001-.001-.001-.001-.001-.001-.001-.001-.001-.001-.001-.001-.001-.001h-4V37.806h4zm-2.713-4.167l-.898.343 1.427 3.737.897-.343-1.426-3.737zm-.886.338c-.015.006-.002-.002.036-.002v4c.498 0 .96-.1 1.367-.252l-1.403-3.746zm.036-.002a.161.161 0 01.1.045l-2.826 2.83c.73.73 1.71 1.125 2.726 1.125v-4zm-4.886-1.47c-.942.544-1.961.965-3.017 1.25l1.042 3.861a16.62 16.62 0 003.976-1.647l-2-3.464zm-5.472 5.842c0-.042.02-.081.042-.104a.143.143 0 01.098-.04v4a3.86 3.86 0 003.86-3.856h-4zm.14-.143H20.33v4h1.926v-4zm-1.926 0c.077 0 .14.06.14.142h-4a3.86 3.86 0 003.86 3.858v-4zm-2.318-4.45a12.508 12.508 0 01-3.014-1.25l-2 3.465a16.512 16.512 0 003.977 1.648l1.037-3.863zm-6.299-1.433l-.356.355 2.827 2.831.356-.356-2.826-2.83zm-.345.345l-1.36 1.337 2.806 2.851 1.36-1.337-2.806-2.85zm-1.37 1.348a.16.16 0 01.1-.045v4a3.847 3.847 0 002.727-1.125l-2.827-2.83zm.1-.045c.012 0 .03.002.05.01a.16.16 0 01.051.035l-2.826 2.83c.73.73 1.71 1.125 2.726 1.125v-4zm.101.044L8.834 32.65l-2.826 2.83 1.365 1.364 2.826-2.83zM8.834 32.65a.142.142 0 010 .203l-2.826-2.83a3.858 3.858 0 000 5.458l2.826-2.83zm1.511-4.777a12.577 12.577 0 01-1.25-3.01l-3.862 1.044c.375 1.384.93 2.725 1.651 3.97l3.461-2.004zM4.5 22.409c.077 0 .14.06.14.143h-4a3.86 3.86 0 003.86 3.857v-4zm.14.143v-1.937h-4v1.937h4zm0-1.937c0 .042-.02.08-.042.103a.143.143 0 01-.098.04v-4a3.86 3.86 0 00-3.86 3.857h4zm4.456-2.312a12.466 12.466 0 011.25-3.008l-3.46-2.005a16.466 16.466 0 00-1.653 3.973l3.863 1.04zm1.434-6.295l-.356-.356-2.826 2.83.356.356 2.826-2.83zm-.352-.353l-1.34-1.343-2.833 2.823 1.34 1.344 2.833-2.824zm-1.343-1.347a.142.142 0 010 .203l-2.826-2.83a3.858 3.858 0 000 5.458l2.826-2.83zm0 .203l1.365-1.363-2.826-2.83L6.008 7.68l2.826 2.831zm1.365-1.363a.16.16 0 01-.1.044v-4a3.847 3.847 0 00-2.726 1.125l2.826 2.83zm-.1.044a.132.132 0 01-.049-.01.161.161 0 01-.052-.034l2.827-2.831a3.847 3.847 0 00-2.726-1.125v4zm4.879 1.464a12.622 12.622 0 013.017-1.25l-1.043-3.861a16.624 16.624 0 00-3.975 1.647l2 3.464zm5.472-5.835c0 .042-.02.081-.042.103a.143.143 0 01-.098.04v-4a3.86 3.86 0 00-3.86 3.857h4zm-.14.143h1.926v-4H20.31v4zm1.926 0a.14.14 0 01-.14-.143h4a3.86 3.86 0 00-3.86-3.857v4zm2.318 4.45c1.058.284 2.07.704 3.015 1.249l2-3.464A16.513 16.513 0 0025.59 5.55l-1.037 3.864zm2.987 1.233l.066.04 2.055-3.432-.066-.04-2.055 3.432zm.095.056l.983.567 1.997-3.466-.983-.566-1.997 3.465zm3.981-1.154l.007-1.133-4-.024-.007 1.133 4 .024zm.007-1.145c0-.36.026-.723.078-1.072l-3.958-.583c-.08.547-.12 1.106-.12 1.655h4zm.078-1.076l.066-.454-3.958-.575-.066.454 3.958.575zm-.975-2.508l-.409-.217-1.877 3.532.41.217 1.877-3.532zm-.416-.22a19.654 19.654 0 00-2.945-1.262l-1.263 3.796c.8.266 1.585.604 2.345 1.005l1.863-3.54zm-1.576.636v-.408h-4v.408h4zm0-.408c0-3.584-2.917-6.492-6.499-6.492v4a2.5 2.5 0 012.499 2.492h4zm-6.499-6.492H20.31v4h1.926v-4zm-1.926 0c-3.582 0-6.499 2.908-6.499 6.492h4a2.5 2.5 0 012.499-2.492v-4zm-6.499 6.492v.408h4v-.408h-4zm1.369-1.49a18.44 18.44 0 00-2.53 1.05l1.812 3.566a14.436 14.436 0 011.98-.82L15.18 3.338zm-.211 1.418l-.29-.29-2.827 2.83.29.29 2.827-2.83zm-.29-.29a6.497 6.497 0 00-4.582-1.902l-.022 4a2.497 2.497 0 011.777.733l2.826-2.83zm-4.593-1.902a6.458 6.458 0 00-4.598 1.908l2.837 2.82a2.458 2.458 0 011.76-.728v-4zM5.493 4.466L4.128 5.83l2.826 2.83 1.365-1.363-2.826-2.83zM4.128 5.83a6.456 6.456 0 00-1.906 4.59h4c0-.666.255-1.284.732-1.76L4.128 5.83zm-1.906 4.59c0 1.727.678 3.373 1.911 4.595l2.816-2.842a2.445 2.445 0 01-.727-1.754h-4zm1.906 4.59l.29.29 2.826-2.831-.29-.29-2.826 2.83zm-.085-2.022a19.253 19.253 0 00-1.046 2.515l3.795 1.267c.226-.678.505-1.348.827-1.99l-3.576-1.792zm.851 1.149h-.409v4h.41v-4zm-.398 0C.913 14.117-2 17.037-2 20.614h4a2.478 2.478 0 012.475-2.479l.021-4zM-2 20.614v1.923h4v-1.923h-4zm0 1.923c0 3.584 2.917 6.492 6.499 6.492v-4A2.5 2.5 0 012 22.538h-4zm6.499 6.492h.409v-4h-.41v4zM3.01 27.663c.285.855.632 1.705 1.052 2.528l3.563-1.817c-.32-.626-.592-1.29-.821-1.977L3.01 27.664zm1.42.204l-.29.29 2.826 2.83.29-.289-2.826-2.83zm-.29.29a6.456 6.456 0 00-1.906 4.59h4c0-.665.255-1.283.732-1.76l-2.826-2.83zm-1.906 4.59c0 1.728.678 3.373 1.911 4.596L6.962 34.5a2.444 2.444 0 01-.727-1.754h-4zm1.906 4.59L5.506 38.7l2.827-2.83-1.366-1.364-2.826 2.831zM5.506 38.7a6.47 6.47 0 004.593 1.902v-4a2.47 2.47 0 01-1.766-.732L5.506 38.7zm4.593 1.902a6.48 6.48 0 004.592-1.895l-2.826-2.83a2.48 2.48 0 01-1.766.725v4zm4.592-1.895l.29-.29-2.826-2.83-.29.29 2.826 2.83zm-2.016.084a19.31 19.31 0 002.518 1.044l1.263-3.796a15.302 15.302 0 01-1.994-.827l-1.787 3.58zm1.15-.854v.409h4v-.409h-4zm0 .409c0 3.583 2.916 6.491 6.498 6.491v-4a2.5 2.5 0 01-2.498-2.492h-4zm6.498 6.491h1.926v-4h-1.926v4zm1.926 0c3.582 0 6.499-2.908 6.499-6.492h-4a2.5 2.5 0 01-2.499 2.492v4zm6.499-6.492v-.408h-4v.409h4zm-1.368 1.49a18.447 18.447 0 002.53-1.05l-1.812-3.566c-.628.319-1.293.591-1.982.82l1.264 3.796zm.21-1.418l.291.29 2.826-2.83-.29-.29-2.826 2.83zm.291.29a6.463 6.463 0 004.593 1.895v-4a2.464 2.464 0 01-1.767-.726l-2.826 2.831zm4.593 1.895c.502 0 1.022-.055 1.54-.184l-.97-3.881a2.366 2.366 0 01-.57.065v4zm1.528-.181l.514-.126-.945-3.886-.515.125.946 3.887zm2.041-2.094l-.006-.527-4 .05.007.527 4-.05zm-.006-.502v-.02h-4v.02h4zM26.994 7.918c-.01.183-.01.365-.01.473h4c0-.13 0-.198.004-.251l-3.994-.222zm3.987.362v-.016l.007-.124-3.994-.222c-.006.102-.02.337-.007.584l3.994-.222zM10.046 3.216a5.82 5.82 0 00-4.078 1.705l2.826 2.83a1.82 1.82 0 011.279-.535l-.027-4zM8.794 7.751a1.849 1.849 0 011.292-.535l-.054-4a5.849 5.849 0 00-4.064 1.705l2.826 2.83zm1.714 30.854a4.52 4.52 0 002.785-1.3l-2.826-2.831a.52.52 0 01-.329.148l.37 3.983zm-.041-4.131a.485.485 0 01-.306.146l.324 3.987a4.484 4.484 0 002.808-1.303l-2.826-2.83zm22.007 1.47h-.004-.001-.001-.001-.001-.004-.001-.001-.001-.001-.004v4H32.474v-4zm-.02 4H32.487v-4h-.001-.002-.003-.001-.001-.001-.002-.001-.002-.004-.001-.002-.001-.002-.001-.001-.001-.001-.001-.001-.001-.001v4zm.033-2v-2h-.002-.001-.001-.001-.001-.004-.001-.001-.001v4H32.487v-2zm-11.2-28.945C14.648 9 9.252 14.391 9.252 21.017h4c0-4.413 3.602-8.018 8.033-8.018V9zM9.252 21.017c0 6.633 5.397 12.018 12.033 12.018v-4c-4.432 0-8.033-3.6-8.033-8.018h-4zm12.033 12.018c6.636 0 12.033-5.385 12.033-12.018h-4c0 4.418-3.6 8.018-8.033 8.018v4zM33.32 21.017c0-6.633-5.397-12.018-12.033-12.018v4c4.433 0 8.033 3.6 8.033 8.018h4zM21.286 26.4c-2.975 0-5.394-2.42-5.394-5.383h-4c0 5.178 4.216 9.383 9.394 9.383v-4zm-5.394-5.383c0-2.963 2.42-5.383 5.394-5.383v-4c-5.178 0-9.394 4.205-9.394 9.383h4zm5.394-5.383c2.975 0 5.395 2.42 5.395 5.383h4c0-5.178-4.216-9.383-9.395-9.383v4zm5.395 5.383c0 2.963-2.42 5.383-5.395 5.383v4c5.178 0 9.395-4.205 9.395-9.383h-4zM50.634 2.913a11.841 11.841 0 00-3.636-4.139L44.69 2.042a7.843 7.843 0 012.405 2.737l3.538-1.866zM46.98-1.239A4.258 4.258 0 0044.558-2v4c.034 0 .084.009.152.056l2.269-3.295zM44.558-2a4.243 4.243 0 00-4.243 4.24h4c0-.129.108-.24.243-.24v-4zm-4.243 4.24v5.828h4V2.24h-4zm0 5.828c0 .02 0 .03-.002.038l3.965.53c.025-.189.037-.376.037-.568h-4zm.001.016a.142.142 0 01-.05.087.143.143 0 01-.095.038v4a4.155 4.155 0 004.104-3.551l-3.959-.574zm-.145.125h-.001-.001-.001-.001-.001-.001-.001-.001-.002-.002-.001-.001-.001-.001-.001-.002-.002-.001-.002-.001-.002-.001-.002-.001-.001-.002-.001-.001-.001-.001-.001-.004-.001-.001-.001-.001-.003-.001-.002-.002-.002-.001-.002-.001-.001-.001-.001-.001-.001-.001-.002-.002-.001v4H40.172v-4zm-.002.001c.025 0-.011.008-.07-.055a.234.234 0 01-.071-.146h-4c0 2.184 1.757 4.12 4 4.198l.141-3.997zm-.141-.201V2.476h-4V8.01h4zm0-5.533a4.368 4.368 0 00-4.368-4.364v4c.204 0 .368.168.368.364h4zM35.66-1.888c-.954 0-1.86.309-2.613.87l2.39 3.208a.356.356 0 01.223-.078v-4zm-2.63.883a11.996 11.996 0 00-3.43 4.107l3.57 1.805a7.996 7.996 0 012.283-2.73L33.03-1.004zm-3.428 4.104a11.861 11.861 0 00-1.272 5.4l4-.018a7.86 7.86 0 01.838-3.57l-3.566-1.812zM28.33 8.504a11.8 11.8 0 001.78 6.155l3.395-2.116a7.8 7.8 0 01-1.175-4.068l-4 .03zm1.777 6.15a11.902 11.902 0 003.508 3.615l2.216-3.33a7.9 7.9 0 01-2.324-2.392l-3.4 2.107zm2.616 1.95v21.122h4V16.604h-4zm0 21.122c0 4.105 3.339 7.434 7.442 7.434v-4a3.443 3.443 0 01-3.442-3.434h-4zm7.442 7.434a7.42 7.42 0 004.902-1.841l-2.64-3.005a3.42 3.42 0 01-2.262.846v4zm4.895-1.835a7.444 7.444 0 002.474-4.55l-3.96-.57a3.444 3.444 0 01-1.141 2.104l2.627 3.016zm2.477-4.573a7.94 7.94 0 00.07-1.026h-4c0 .15-.013.326-.036.503l3.966.523zm.07-1.026V16.617h-4v21.11h4zm-.89-19.445a11.933 11.933 0 003.521-3.637l-3.405-2.1a7.932 7.932 0 01-2.337 2.41l2.221 3.327zm3.52-3.635A11.809 11.809 0 0052 8.437h-4a7.809 7.809 0 01-1.166 4.106l3.403 2.103zM52 8.445a11.732 11.732 0 00-1.368-5.538l-3.533 1.877a7.733 7.733 0 01.9 3.644l4 .016zm-9.107 5.164l-.178.092 1.839 3.552.178-.092-1.839-3.552zm-1.258 1.868v22.248h4V15.478h-4zm0 22.248c0 .061-.005.14-.018.24l3.969.496a5.94 5.94 0 00.049-.736h-4zm-.014.21a1.476 1.476 0 01-1.45 1.248v4c2.705 0 5.034-2.004 5.411-4.692l-3.961-.556zm-1.45 1.248c-.808 0-1.463-.66-1.463-1.458h-4a5.464 5.464 0 005.463 5.458v-4zm-1.463-1.458V15.471h-4v22.255h4zm-1.08-24.03l-.178-.093-1.84 3.552.179.092 1.839-3.552zm-.165-.086c-1.942-1.024-3.138-2.994-3.148-5.143l-4 .019c.017 3.647 2.053 6.96 5.282 8.662l1.866-3.538zm-3.148-5.144a5.786 5.786 0 012.332-4.703L34.237.57a9.786 9.786 0 00-3.922 7.917l4-.021zM36.69 3.73a1.641 1.641 0 01-1.024.358v-4c-.525 0-1.046.176-1.472.516L36.69 3.73zm-1.024.358c-.406 0-.783-.15-1.073-.41a1.624 1.624 0 01-.538-1.202h4c0-1.543-1.306-2.388-2.389-2.388v4zm-1.61-1.612v5.526h4V2.476h-4zm0 5.526c0 1.588.622 3.105 1.718 4.257l2.898-2.757a2.178 2.178 0 01-.617-1.5h-4zm1.718 4.257c1.103 1.159 2.592 1.858 4.19 1.918l.15-3.997c-.512-.02-1.028-.243-1.442-.678l-2.898 2.757zm4.265 1.92H40.179v-4h-.001-.002-.001-.002-.001-.002-.001-.003-.001-.002-.001-.002-.001-.002-.001-.001-.002-.001-.002-.001-.002-.001-.003-.001-.002-.001-.002-.001-.002-.001-.001-.002-.001-.002-.001-.002-.001-.001-.002-.001-.002-.001-.002-.001-.002-.001-.001-.002-.001-.002-.001-.002-.001-.001-.002-.001-.002-.001-.002-.001-.003-.001-.002-.001-.002-.001-.002-.001-.001-.002-.001-.002-.001-.002-.001-.003-.001-.002-.001-.002-.001-.002-.001-.001-.002-.001-.002-.001-.002-.001-.003v4zm.139 0c3.037 0 5.64-2.251 6.064-5.259l-3.961-.557a2.136 2.136 0 01-2.103 1.815v4zm6.064-5.264c.04-.284.059-.573.059-.853h-4c0 .101-.008.207-.021.306l3.962.547zm.059-.853V2.239h-4v5.823h4zm0-5.823c0 1.133-.96 1.737-1.736 1.737v-4c-1.027 0-2.264.802-2.264 2.263h4zm-1.736 1.737a1.75 1.75 0 01-1.017-.326L45.871.394a2.237 2.237 0 00-1.306-.418v4zm-1.007-.32a5.85 5.85 0 012.476 4.774h4A9.85 9.85 0 0045.862.387l-2.304 3.27zm2.476 4.77a5.844 5.844 0 01-3.147 5.187l1.851 3.546a9.844 9.844 0 005.296-8.724l-4-.009zm-9.997 29.307v-2.226h-4v2.226h4zm-3.463-3.714l-1.702-1.7-2.826 2.831 1.702 1.7 2.826-2.83zm-4.112-2.018l-.87.5 1.993 3.468.87-.5-1.993-3.468zm-3.89 1.753l-.977.263 1.042 3.862.976-.264-1.042-3.861zm-2.456 2.194v2.398h4v-2.398h-4zm-1.646 2.398v-2.398h-4v2.398h4zm-1.48-4.329l-.975-.263-1.043 3.861.977.264 1.042-3.862zm-3.996-1.515l-.87-.5-1.994 3.467.87.5 1.994-3.467zm-6.16.35l1.695-1.693-2.826-2.83-1.695 1.692 2.826 2.83zm2.015-4.107l-.502-.87-3.465 1.998.501.87 3.466-1.998zM9.094 24.86l-.264-.975-3.86 1.045.263.975 3.861-1.045zM6.9 22.41H4.499v4h2.4v-4zm-2.401-1.651h2.4v-4H4.5v4zM8.83 19.28l.264-.974-3.86-1.046-.265.975L8.83 19.28zm1.517-3.989l.502-.869-3.466-1.998-.5.87 3.464 1.997zm-.349-6.143l1.696 1.692 2.826-2.83-1.695-1.693-2.827 2.83zm4.106 2.01l.87-.5-1.993-3.467-.871.5 1.994 3.468zm3.89-1.752l.977-.263-1.042-3.862-.976.264 1.042 3.861zm2.456-2.194v-2.39h-4v2.39h4zm1.646-2.39v2.397h4V4.82h-4zm1.48 4.328l.975.263 1.043-3.862-.977-.263-1.042 3.862z" fill="url(#paint3_linear)" mask="url(#a)"/><defs><linearGradient id="paint0_linear" x1="-2.083" y1="21.226" x2="52.244" y2="21.226" gradientUnits="userSpaceOnUse"><stop stop-color="#5B40D7"/><stop offset="1" stop-color="#E85F62"/></linearGradient><linearGradient id="paint1_linear" x1="-2.083" y1="21.226" x2="52.244" y2="21.226" gradientUnits="userSpaceOnUse"><stop stop-color="#5B40D7"/><stop offset="1" stop-color="#E85F62"/></linearGradient><linearGradient id="paint2_linear" x1="-2.083" y1="21.226" x2="52.244" y2="21.226" gradientUnits="userSpaceOnUse"><stop stop-color="#5B40D7"/><stop offset="1" stop-color="#E85F62"/></linearGradient><linearGradient id="paint3_linear" x1="-2.083" y1="21.226" x2="52.244" y2="21.226" gradientUnits="userSpaceOnUse"><stop stop-color="#5B40D7"/><stop offset="1" stop-color="#E85F62"/></linearGradient></defs></svg>