<svg width="46" height="44" fill="none" xmlns="http://www.w3.org/2000/svg"><path d="M16.564 13.383L23 2.04l6.436 11.343a2.5 2.5 0 001.673 1.216l12.776 2.615-8.799 9.626a2.5 2.5 0 00-.639 1.967l1.46 12.96-11.873-5.395a2.5 2.5 0 00-2.068 0l-11.874 5.394 1.46-12.96a2.5 2.5 0 00-.638-1.966l-8.8-9.626 12.777-2.615a2.5 2.5 0 001.673-1.216zM36.71 42.13h0zm-27.42 0s0 0 0 0h0z" stroke="url(#paint0_linear)" stroke-width="3"/><defs><linearGradient id="paint0_linear" x1="-4.083" y1="23.59" x2="50.244" y2="23.59" gradientUnits="userSpaceOnUse"><stop stop-color="#5B40D7"/><stop offset="1" stop-color="#E85F62"/></linearGradient></defs></svg>