<svg width="78" height="41" fill="none" xmlns="http://www.w3.org/2000/svg"><path d="M1.034 20.392h31.392l-1.034 2.77H0l1.034-2.77z" fill="url(#paint0_linear)"/><path fill-rule="evenodd" clip-rule="evenodd" d="M1.728 21.392l-.287.77h29.257l.287-.77H1.728zm-.694-1L0 23.162h31.392l1.034-2.77H1.034z" fill="url(#paint1_linear)"/><path d="M5.944 13.374h28.698l-1.036 2.585H4.908l1.036-2.585z" fill="url(#paint2_linear)"/><path fill-rule="evenodd" clip-rule="evenodd" d="M6.62 14.374l-.234.585h26.543l.235-.585H6.62zm-.676-1l-1.036 2.585h28.698l1.036-2.585H5.944z" fill="url(#paint3_linear)"/><path d="M20.723 6.171h15.95l-1.04 2.77h-15.95l1.04-2.77z" fill="url(#paint4_linear)"/><path fill-rule="evenodd" clip-rule="evenodd" d="M21.415 7.171l-.289.77h13.815l.289-.77H21.415zm-.692-1l-1.04 2.77h15.95l1.04-2.77h-15.95z" fill="url(#paint5_linear)"/><path d="M58.466 7.211v15.951l-2.77-1.04V6.172l2.77 1.04z" fill="url(#paint6_linear)"/><path fill-rule="evenodd" clip-rule="evenodd" d="M57.466 7.904l-.77-.29V21.43l.77.29V7.904zm1-.693l-2.77-1.04v15.951l2.77 1.04V7.212z" fill="url(#paint7_linear)"/><path d="M58.485 21.187l5.91 5.233-2.79.99-5.91-5.233 2.79-.99z" fill="url(#paint8_linear)"/><path fill-rule="evenodd" clip-rule="evenodd" d="M58.263 22.327l-.635.225 4.2 3.718.634-.225-4.199-3.718zm.222-1.14l-2.79.99 5.91 5.233 2.79-.99-5.91-5.233z" fill="url(#paint9_linear)"/><path d="M8.903 27.595h25.739l-1.04 2.77H7.861l1.041-2.77z" fill="url(#paint10_linear)"/><path fill-rule="evenodd" clip-rule="evenodd" d="M9.596 28.595l-.29.77H32.91l.29-.77H9.595zm-.693-1l-1.04 2.77H33.6l1.04-2.77H8.904z" fill="url(#paint11_linear)"/><path d="M26.825 34.797h9.848l-1.047 2.77h-9.849l1.048-2.77z" fill="url(#paint12_linear)"/><path fill-rule="evenodd" clip-rule="evenodd" d="M27.516 35.797l-.292.77h7.71l.292-.77h-7.71zm-.691-1l-1.048 2.77h9.849l1.047-2.77h-9.848z" fill="url(#paint13_linear)"/><path fill-rule="evenodd" clip-rule="evenodd" d="M57.173 38c9.665 0 17.5-7.835 17.5-17.5S66.838 3 57.173 3s-17.5 7.835-17.5 17.5S47.508 38 57.173 38zm0 3c11.322 0 20.5-9.178 20.5-20.5S68.495 0 57.173 0c-11.321 0-20.5 9.178-20.5 20.5S45.852 41 57.173 41z" fill="url(#paint14_linear)"/><defs><linearGradient id="paint0_linear" x1="-3.236" y1="20.164" x2="81.159" y2="20.164" gradientUnits="userSpaceOnUse"><stop stop-color="#5B40D7"/><stop offset="1" stop-color="#E85F62"/></linearGradient><linearGradient id="paint1_linear" x1="-3.236" y1="20.164" x2="81.159" y2="20.164" gradientUnits="userSpaceOnUse"><stop stop-color="#5B40D7"/><stop offset="1" stop-color="#E85F62"/></linearGradient><linearGradient id="paint2_linear" x1="-3.236" y1="20.164" x2="81.159" y2="20.164" gradientUnits="userSpaceOnUse"><stop stop-color="#5B40D7"/><stop offset="1" stop-color="#E85F62"/></linearGradient><linearGradient id="paint3_linear" x1="-3.236" y1="20.164" x2="81.159" y2="20.164" gradientUnits="userSpaceOnUse"><stop stop-color="#5B40D7"/><stop offset="1" stop-color="#E85F62"/></linearGradient><linearGradient id="paint4_linear" x1="-3.236" y1="20.164" x2="81.159" y2="20.164" gradientUnits="userSpaceOnUse"><stop stop-color="#5B40D7"/><stop offset="1" stop-color="#E85F62"/></linearGradient><linearGradient id="paint5_linear" x1="-3.236" y1="20.164" x2="81.159" y2="20.164" gradientUnits="userSpaceOnUse"><stop stop-color="#5B40D7"/><stop offset="1" stop-color="#E85F62"/></linearGradient><linearGradient id="paint6_linear" x1="-3.236" y1="20.164" x2="81.159" y2="20.164" gradientUnits="userSpaceOnUse"><stop stop-color="#5B40D7"/><stop offset="1" stop-color="#E85F62"/></linearGradient><linearGradient id="paint7_linear" x1="-3.236" y1="20.164" x2="81.159" y2="20.164" gradientUnits="userSpaceOnUse"><stop stop-color="#5B40D7"/><stop offset="1" stop-color="#E85F62"/></linearGradient><linearGradient id="paint8_linear" x1="-3.236" y1="20.164" x2="81.159" y2="20.164" gradientUnits="userSpaceOnUse"><stop stop-color="#5B40D7"/><stop offset="1" stop-color="#E85F62"/></linearGradient><linearGradient id="paint9_linear" x1="-3.236" y1="20.164" x2="81.159" y2="20.164" gradientUnits="userSpaceOnUse"><stop stop-color="#5B40D7"/><stop offset="1" stop-color="#E85F62"/></linearGradient><linearGradient id="paint10_linear" x1="-3.236" y1="20.164" x2="81.159" y2="20.164" gradientUnits="userSpaceOnUse"><stop stop-color="#5B40D7"/><stop offset="1" stop-color="#E85F62"/></linearGradient><linearGradient id="paint11_linear" x1="-3.236" y1="20.164" x2="81.159" y2="20.164" gradientUnits="userSpaceOnUse"><stop stop-color="#5B40D7"/><stop offset="1" stop-color="#E85F62"/></linearGradient><linearGradient id="paint12_linear" x1="-3.236" y1="20.164" x2="81.159" y2="20.164" gradientUnits="userSpaceOnUse"><stop stop-color="#5B40D7"/><stop offset="1" stop-color="#E85F62"/></linearGradient><linearGradient id="paint13_linear" x1="-3.236" y1="20.164" x2="81.159" y2="20.164" gradientUnits="userSpaceOnUse"><stop stop-color="#5B40D7"/><stop offset="1" stop-color="#E85F62"/></linearGradient><linearGradient id="paint14_linear" x1="-3.236" y1="20.164" x2="81.159" y2="20.164" gradientUnits="userSpaceOnUse"><stop stop-color="#5B40D7"/><stop offset="1" stop-color="#E85F62"/></linearGradient></defs></svg>