<svg width="77" height="22" fill="none" xmlns="http://www.w3.org/2000/svg"><path d="M10.5 2.478l2.251 3.968.87-.494-.87.494a2 2 0 001.339.972l4.469.915L15.48 11.7a2 2 0 00-.511 1.574l.51 4.533-4.153-1.887a2 2 0 00-1.654 0l-4.154 1.887.511-4.533a2 2 0 00-.51-1.574L2.44 8.333l4.47-.915a2 2 0 001.338-.972L10.5 2.478z" stroke="url(#paint0_linear)" stroke-width="2"/><path d="M38.5 2.478l2.251 3.968.87-.494-.87.494a2 2 0 001.339.972l4.469.915L43.48 11.7a2 2 0 00-.511 1.574l.51 4.533-4.153-1.887a2 2 0 00-1.654 0l-4.154 1.887.511-4.533a2 2 0 00-.51-1.574L30.44 8.333l4.47-.915a2 2 0 001.338-.972L38.5 2.478z" stroke="url(#paint1_linear)" stroke-width="2"/><path d="M66.5 2.478l2.251 3.968.87-.494-.87.494a2 2 0 001.339.972l4.469.915L71.48 11.7a2 2 0 00-.511 1.574l.51 4.533-4.153-1.887a2 2 0 00-1.654 0l-4.154 1.887.511-4.533a2 2 0 00-.51-1.574L58.44 8.333l4.47-.915a2 2 0 001.338-.972L66.5 2.478z" stroke="url(#paint2_linear)" stroke-width="2"/><defs><linearGradient id="paint0_linear" x1="-.875" y1="10.78" x2="21.942" y2="10.78" gradientUnits="userSpaceOnUse"><stop stop-color="#5B40D7"/><stop offset="1" stop-color="#E85F62"/></linearGradient><linearGradient id="paint1_linear" x1="27.125" y1="10.78" x2="49.942" y2="10.78" gradientUnits="userSpaceOnUse"><stop stop-color="#5B40D7"/><stop offset="1" stop-color="#E85F62"/></linearGradient><linearGradient id="paint2_linear" x1="55.125" y1="10.78" x2="77.942" y2="10.78" gradientUnits="userSpaceOnUse"><stop stop-color="#5B40D7"/><stop offset="1" stop-color="#E85F62"/></linearGradient></defs></svg>