<svg width="39" height="34" fill="none" xmlns="http://www.w3.org/2000/svg"><path d="M1.01 3H39l-1.01 2.667H0L1.01 3z" fill="url(#paint0_linear)"/><path d="M1.01 15.667H39l-1.01 2.666H0l1.01-2.666z" fill="url(#paint1_linear)"/><path d="M1.01 28H39l-1.01 2.667H0L1.01 28z" fill="url(#paint2_linear)"/><circle cx="12.667" cy="4.333" r="4.333" fill="url(#paint3_linear)"/><circle cx="12.833" cy="4.5" r="2.5" fill="#fff"/><circle cx="12.667" cy="29.333" r="4.333" fill="url(#paint4_linear)"/><circle cx="21.167" cy="16.833" r="4.167" fill="url(#paint5_linear)"/><circle cx="21.167" cy="16.833" r="2.5" fill="#fff"/><ellipse cx="12.833" cy="29.333" rx="2.5" ry="2.667" fill="#fff"/><defs><linearGradient id="paint0_linear" x1="-1.625" y1="9.885" x2="40.75" y2="9.885" gradientUnits="userSpaceOnUse"><stop stop-color="#5B40D7"/><stop offset="1" stop-color="#E85F62"/></linearGradient><linearGradient id="paint1_linear" x1="-1.625" y1="16.978" x2="40.75" y2="16.978" gradientUnits="userSpaceOnUse"><stop stop-color="#5B40D7"/><stop offset="1" stop-color="#E85F62"/></linearGradient><linearGradient id="paint2_linear" x1="-1.625" y1="29.311" x2="40.75" y2="29.311" gradientUnits="userSpaceOnUse"><stop stop-color="#5B40D7"/><stop offset="1" stop-color="#E85F62"/></linearGradient><linearGradient id="paint3_linear" x1="7.972" y1="4.262" x2="17.389" y2="4.262" gradientUnits="userSpaceOnUse"><stop stop-color="#5B40D7"/><stop offset="1" stop-color="#E85F62"/></linearGradient><linearGradient id="paint4_linear" x1="7.972" y1="29.262" x2="17.389" y2="29.262" gradientUnits="userSpaceOnUse"><stop stop-color="#5B40D7"/><stop offset="1" stop-color="#E85F62"/></linearGradient><linearGradient id="paint5_linear" x1="16.653" y1="16.765" x2="25.707" y2="16.765" gradientUnits="userSpaceOnUse"><stop stop-color="#5B40D7"/><stop offset="1" stop-color="#E85F62"/></linearGradient></defs></svg>