<svg width="52" height="32" fill="none" xmlns="http://www.w3.org/2000/svg"><path fill-rule="evenodd" clip-rule="evenodd" d="M32 2H2v23h30V2zM0 0v27h34V0H0z" fill="url(#a)"/><path fill-rule="evenodd" clip-rule="evenodd" d="M50 12.395 42.667 5H37v20h13V12.395zM43.5 3l8.5 8.571V27H35V3h8.5z" fill="url(#b)"/><path d="M49 27a5 5 0 1 1-10 0 5 5 0 0 1 10 0z" fill="#fff"/><path fill-rule="evenodd" clip-rule="evenodd" d="M44 30a3 3 0 1 0 0-6 3 3 0 0 0 0 6zm0 2a5 5 0 1 0 0-10 5 5 0 0 0 0 10z" fill="url(#c)"/><path d="M13 27a5 5 0 1 1-10 0 5 5 0 0 1 10 0z" fill="#fff"/><path fill-rule="evenodd" clip-rule="evenodd" d="M8 30a3 3 0 1 0 0-6 3 3 0 0 0 0 6zm0 2a5 5 0 1 0 0-10 5 5 0 0 0 0 10z" fill="url(#d)"/><defs><linearGradient id="a" x1="-1.417" y1="13.279" x2="35.526" y2="13.279" gradientUnits="userSpaceOnUse"><stop stop-color="#5B40D7"/><stop offset="1" stop-color="#E85F62"/></linearGradient><linearGradient id="b" x1="34.292" y1="14.803" x2="52.763" y2="14.803" gradientUnits="userSpaceOnUse"><stop stop-color="#5B40D7"/><stop offset="1" stop-color="#E85F62"/></linearGradient><linearGradient id="c" x1="38.583" y1="26.918" x2="49.449" y2="26.918" gradientUnits="userSpaceOnUse"><stop stop-color="#5B40D7"/><stop offset="1" stop-color="#E85F62"/></linearGradient><linearGradient id="d" x1="2.583" y1="26.918" x2="13.449" y2="26.918" gradientUnits="userSpaceOnUse"><stop stop-color="#5B40D7"/><stop offset="1" stop-color="#E85F62"/></linearGradient></defs></svg>