<svg width="16" height="16" fill="none" xmlns="http://www.w3.org/2000/svg"><path d="M1 0C.437 0 0 .469 0 1v14.5c0 .281.219.5.5.5h1c.25 0 .5-.219.5-.5V1c0-.531-.469-1-1-1zm8.344 9.5C7.563 9.031 5.875 8.594 3 9.844V12c5.781-2.875 6.906 1.688 12.406-.719.344-.156.594-.5.594-.875V9.281c-1.375.531-2.531.75-3.531.75-1.156 0-2.125-.281-3.125-.531zm0-3C7.563 6.031 5.875 5.594 3 6.844V8.78c2.938-1.187 4.813-.719 6.625-.25 1.781.469 3.469.906 6.375-.344V6.25c-1.375.563-2.531.781-3.531.781-1.156 0-2.125-.281-3.125-.531zm.312-3.938c1.625.5 3.031.907 6.344-.624v-.97c0-.78-.844-1.187-1.563-.812C9.095 2.875 9.532-1.938 3 1.031v4.75c2.938-1.187 4.813-.718 6.625-.25 1.781.469 3.469.907 6.375-.343V3.03c-1.688.75-2.938 1-3.969 1-1 0-1.844-.25-2.656-.5-.125-.062-.25-.094-.375-.125V2.375l.656.188zM5 4.032c-.281 0-.5-.25-.5-.5 0-.282.219-.5.5-.5.25 0 .5.218.5.5 0 .25-.25.5-.5.5zm0-1.75a.494.494 0 01-.5-.5c0-.282.219-.5.5-.5.25 0 .5.218.5.5 0 .28-.25.5-.5.5zm2 1.5a.494.494 0 01-.5-.5c0-.282.219-.5.5-.5.25 0 .5.218.5.5 0 .25-.25.5-.5.5zm0-1.75a.494.494 0 01-.5-.5c0-.282.219-.5.5-.5.25 0 .5.218.5.5 0 .28-.25.5-.5.5z" fill="#fff"/></svg>