<svg width="21" height="12" fill="none" xmlns="http://www.w3.org/2000/svg"><path d="M17 4a4.62 4.62 0 00-1.313.219L14.658 2.5h2.593a.74.74 0 00.75-.75v-1a.76.76 0 00-.75-.75h-1.438a.783.783 0 00-.562.25l-1.156 1.313-.719-1.188A.75.75 0 0012.75 0h-2.5c-.281 0-.5.25-.5.5V1c0 .281.219.5.5.5h2.063l.593 1H8.094C7.563 1.781 6.719 1.25 5 1.25H3.25c-.406 0-.781.344-.75.781 0 .406.313.719.75.719H5c.75 0 1.188.344 1.469.781l-.344.656a3.525 3.525 0 00-1.281-.156C2.719 4.094 1.03 5.813 1 7.906.937 10.188 2.75 12 5 12c1.844 0 3.406-1.25 3.875-3H11.5c.406 0 .75-.344.75-.781A4.741 4.741 0 0114 4.313l.375.656c-.844.75-1.406 1.843-1.375 3.062C13 10.22 14.781 12 16.938 12c2.25.031 4.062-1.781 4.062-4.031C20.969 5.812 19.187 4.03 17 4zM5 10.5A2.468 2.468 0 012.5 8c0-1.375 1.094-2.5 2.5-2.5.125 0 .25.031.375.031L4.094 7.906C3.812 8.406 4.156 9 4.75 9h2.531C6.875 9.906 6 10.5 5 10.5zm14.469-2.344a2.496 2.496 0 01-2.344 2.344C15.687 10.594 14.5 9.437 14.5 8c0-.656.25-1.25.688-1.719l1.53 2.594c.157.219.438.313.688.156l.438-.25A.495.495 0 0018 8.094l-1.5-2.531c.156-.032.313-.032.5-.032 1.406-.031 2.563 1.188 2.469 2.625z" fill="#fff"/></svg>