<svg width="20" height="16" fill="none" xmlns="http://www.w3.org/2000/svg"><path d="M19.5 7H19V5c0-.531-.469-1-1-1h-2.313L13.095.781A2.116 2.116 0 0011.53 0H8c-.563 0-1 .469-1 1v3H1.5c-.281 0-.5.25-.5.5V7H.5c-.281 0-.5.25-.5.5v1c0 .281.219.5.5.5H1c.906-1.188 2.344-2 4-2 1.625 0 3.063.813 3.969 2H11c.906-1.188 2.344-2 4-2 1.625 0 3.063.813 3.969 2h.531c.25 0 .5-.219.5-.5v-1c0-.25-.25-.5-.5-.5zM9 4V2h2.531l1.594 2H9zm9.5 7h-.188a3.727 3.727 0 00-.25-.625l.094-.125c.219-.188.219-.5 0-.719l-.687-.687c-.219-.219-.532-.219-.719 0l-.125.094a3.723 3.723 0 00-.625-.25V8.5c0-.25-.25-.5-.5-.5h-1c-.281 0-.5.25-.5.5v.188c-.25.062-.469.156-.656.25l-.125-.094c-.188-.219-.5-.219-.719 0l-.688.687c-.218.219-.218.531 0 .719l.094.125a3.736 3.736 0 00-.25.625H11.5c-.281 0-.5.25-.5.5v1c0 .281.219.5.5.5h.156c.063.25.156.469.25.656l-.094.125c-.218.188-.218.5 0 .719l.688.688c.219.218.531.218.719 0l.125-.094c.187.094.406.187.656.25v.156c0 .281.219.5.5.5h1c.25 0 .5-.219.5-.5v-.156c.219-.063.438-.156.625-.25l.125.094c.188.218.5.218.719 0l.687-.688c.219-.219.219-.531 0-.719l-.093-.125c.093-.187.187-.406.25-.656h.187c.25 0 .5-.219.5-.5v-1c0-.25-.25-.5-.5-.5zM15 13.5a1.48 1.48 0 01-1.5-1.5 1.5 1.5 0 011.5-1.5c.813 0 1.5.688 1.5 1.5a1.5 1.5 0 01-1.5 1.5zM8.5 11h-.188a3.723 3.723 0 00-.25-.625l.094-.125c.219-.188.219-.5 0-.719l-.687-.687c-.219-.219-.532-.219-.719 0l-.125.094A3.725 3.725 0 006 8.688V8.5c0-.25-.25-.5-.5-.5h-1c-.281 0-.5.25-.5.5v.188c-.25.062-.469.156-.656.25l-.125-.094c-.188-.219-.5-.219-.719 0l-.688.687c-.218.219-.218.531 0 .719l.094.125a3.723 3.723 0 00-.25.625H1.5c-.281 0-.5.25-.5.5v1c0 .281.219.5.5.5h.156c.063.25.157.469.25.656l-.093.125c-.22.188-.22.5 0 .719l.687.688c.219.218.531.218.719 0l.125-.094c.187.094.406.187.656.25v.156c0 .281.219.5.5.5h1c.25 0 .5-.219.5-.5v-.156c.219-.063.438-.156.625-.25l.125.094c.188.218.5.218.719 0l.687-.688c.219-.219.219-.531 0-.719l-.094-.125c.094-.187.188-.406.25-.656H8.5c.25 0 .5-.219.5-.5v-1c0-.25-.25-.5-.5-.5zM5 13.5A1.48 1.48 0 013.5 12 1.5 1.5 0 015 10.5c.813 0 1.5.688 1.5 1.5A1.5 1.5 0 015 13.5z" fill="#fff"/></svg>