<svg width="16" height="14" fill="none" xmlns="http://www.w3.org/2000/svg"><path d="M15.5 11H5v-.5c0-.25-.25-.5-.5-.5h-1c-.281 0-.5.25-.5.5v.5H.5c-.281 0-.5.25-.5.5v1c0 .281.219.5.5.5H3v.5c0 .281.219.5.5.5h1c.25 0 .5-.219.5-.5V13h10.5c.25 0 .5-.219.5-.5v-1c0-.25-.25-.5-.5-.5zm0-5H13v-.5c0-.25-.25-.5-.5-.5h-1c-.281 0-.5.25-.5.5V6H.5c-.281 0-.5.25-.5.5v1c0 .281.219.5.5.5H11v.5c0 .281.219.5.5.5h1c.25 0 .5-.219.5-.5V8h2.5c.25 0 .5-.219.5-.5v-1c0-.25-.25-.5-.5-.5zm0-5H9V.5c0-.25-.25-.5-.5-.5h-1c-.281 0-.5.25-.5.5V1H.5c-.281 0-.5.25-.5.5v1c0 .281.219.5.5.5H7v.5c0 .281.219.5.5.5h1c.25 0 .5-.219.5-.5V3h6.5c.25 0 .5-.219.5-.5v-1c0-.25-.25-.5-.5-.5z" fill="#fff"/></svg>