<svg width="17" height="12" fill="none" xmlns="http://www.w3.org/2000/svg"><path d="M16.594 3.5H14.75l-.531-1.281A3.489 3.489 0 0010.969 0H7a3.489 3.489 0 00-3.25 2.219L3.219 3.5H1.375c-.25 0-.438.25-.375.469l.188.75c.03.187.187.281.375.281h.625A1.948 1.948 0 001.5 6.5V8c0 .531.188.969.5 1.313V11c0 .563.438 1 1 1h1c.531 0 1-.438 1-1v-1h8v1c0 .563.438 1 1 1h1c.531 0 1-.438 1-1V9.312c.281-.343.5-.78.5-1.312V6.5c0-.594-.281-1.125-.719-1.5h.656c.157 0 .313-.094.344-.281l.188-.75c.062-.219-.125-.469-.375-.469zm-11-.531C5.844 2.375 6.375 2 7 2h3.969c.625 0 1.156.375 1.406.969L13 4.5H5l.594-1.531zM4 8c-.625 0-1-.375-1-1 0-.594.375-1 1-1 .594 0 1.5.906 1.5 1.5S4.594 8 4 8zm10 0c-.625 0-1.5.094-1.5-.5S13.375 6 14 6c.594 0 1 .406 1 1 0 .625-.406 1-1 1z" fill="#fff"/></svg>