<svg width="17" height="12" viewBox="0 0 17 12" fill="none" xmlns="http://www.w3.org/2000/svg">
<path d="M16.5938 3.5H14.75L14.2188 2.21875C13.6875 0.875 12.4062 0 10.9688 0H7C5.5625 0 4.28125 0.875 3.75 2.21875L3.21875 3.5H1.375C1.125 3.5 0.9375 3.75 1 3.96875L1.1875 4.71875C1.21875 4.90625 1.375 5 1.5625 5H2.1875C1.75 5.375 1.5 5.90625 1.5 6.5V8C1.5 8.53125 1.6875 8.96875 2 9.3125V11C2 11.5625 2.4375 12 3 12H4C4.53125 12 5 11.5625 5 11V10H13V11C13 11.5625 13.4375 12 14 12H15C15.5312 12 16 11.5625 16 11V9.3125C16.2812 8.96875 16.5 8.53125 16.5 8V6.5C16.5 5.90625 16.2188 5.375 15.7812 5H16.4375C16.5938 5 16.75 4.90625 16.7812 4.71875L16.9688 3.96875C17.0312 3.75 16.8438 3.5 16.5938 3.5ZM5.59375 2.96875C5.84375 2.375 6.375 2 7 2H10.9688C11.5938 2 12.125 2.375 12.375 2.96875L13 4.5H5L5.59375 2.96875ZM4 8C3.375 8 3 7.625 3 7C3 6.40625 3.375 6 4 6C4.59375 6 5.5 6.90625 5.5 7.5C5.5 8.09375 4.59375 8 4 8ZM14 8C13.375 8 12.5 8.09375 12.5 7.5C12.5 6.90625 13.375 6 14 6C14.5938 6 15 6.40625 15 7C15 7.625 14.5938 8 14 8Z" fill="white"/>
</svg>
