<svg width="22" height="14" fill="none" xmlns="http://www.w3.org/2000/svg"><path d="M14.066 1.91H8.302v10.371h5.764V1.911z" fill="#F16522"/><path d="M8.663 7.096c0-2.108.99-3.972 2.52-5.185A6.534 6.534 0 007.11.505 6.585 6.585 0 00.527 7.096a6.585 6.585 0 006.583 6.591 6.579 6.579 0 004.074-1.405 6.612 6.612 0 01-2.52-5.186z" fill="#E41B24"/><path d="M21.841 7.096a6.586 6.586 0 01-6.584 6.59 6.58 6.58 0 01-4.073-1.405 6.57 6.57 0 002.51-5.185 6.586 6.586 0 00-2.51-5.186A6.534 6.534 0 0115.257.505c3.638-.01 6.584 2.95 6.584 6.59zm-.628 4.078v-.213h.085v-.043h-.212v.043h.085v.213h.042zm.426 0v-.255h-.064l-.074.18-.075-.18h-.064v.255h.043v-.192l.074.17h.053l.075-.17v.192h.032z" fill="#F89E1C"/></svg>