<svg width="25" height="8" fill="none" xmlns="http://www.w3.org/2000/svg"><path d="M3.94 2.638c-.107.67-.618.67-1.107.67h-.287l.202-1.256a.15.15 0 01.149-.128h.128c.34 0 .659 0 .819.192.106.117.138.287.095.522zM3.726.89H1.855a.262.262 0 00-.256.224L.844 5.917c-.01.096.053.181.15.181h.893a.262.262 0 00.255-.223l.202-1.3a.262.262 0 01.255-.223h.596c1.233 0 1.946-.596 2.127-1.778.085-.522 0-.927-.234-1.203-.266-.32-.734-.48-1.361-.48zM8.066 4.362a.993.993 0 01-1.01.852c-.256 0-.468-.085-.596-.245a.78.78 0 01-.138-.628c.085-.511.489-.863 1-.863.255 0 .457.086.595.245.138.17.192.394.149.64zM9.31 2.616h-.893a.15.15 0 00-.149.128l-.042.255-.064-.096c-.192-.276-.628-.372-1.053-.372-.99 0-1.83.745-2 1.8-.085.521.032 1.021.33 1.373.276.32.66.458 1.127.458.798 0 1.234-.511 1.234-.511l-.042.244c-.011.096.053.181.148.181h.809a.262.262 0 00.255-.223l.479-3.067c.032-.085-.043-.17-.139-.17zM14.086 2.616h-.904a.245.245 0 00-.213.117l-1.244 1.832-.521-1.757a.262.262 0 00-.245-.181h-.893a.157.157 0 00-.15.202l.99 2.907-.936 1.32a.154.154 0 00.127.245h.894c.085 0 .17-.043.213-.106l3.01-4.334c.063-.107-.011-.245-.128-.245zM17.276 2.637c-.106.67-.616.67-1.106.67h-.276l.202-1.256a.15.15 0 01.149-.127h.127c.34 0 .66 0 .82.191.084.117.116.288.084.522zM17.053.891h-1.872a.262.262 0 00-.255.223l-.755 4.803c-.01.095.053.18.149.18h.957c.085 0 .17-.063.18-.148l.213-1.363a.262.262 0 01.256-.224h.595c1.234 0 1.947-.596 2.128-1.778.085-.522 0-.926-.234-1.203-.256-.33-.734-.49-1.362-.49zM21.393 4.362a.993.993 0 01-1.01.852c-.256 0-.469-.085-.596-.245a.78.78 0 01-.139-.628c.085-.511.49-.863 1-.863.255 0 .457.086.596.245.138.17.191.394.149.64zm1.255-1.746h-.894a.15.15 0 00-.149.128l-.042.255-.064-.096c-.191-.276-.628-.372-1.053-.372-.99 0-1.83.745-2 1.8-.085.521.032 1.021.33 1.373.277.32.66.458 1.128.458.797 0 1.233-.511 1.233-.511l-.042.244c-.01.096.053.181.149.181h.808a.262.262 0 00.255-.223l.49-3.067c.02-.085-.054-.17-.15-.17zM23.7 1.019l-.765 4.887c-.01.096.053.181.149.181h.776a.262.262 0 00.255-.223l.756-4.803c.01-.095-.054-.18-.15-.18h-.86c-.086.01-.15.063-.16.138z" fill="#fff"/></svg>