<svg width="20" height="18" fill="none" xmlns="http://www.w3.org/2000/svg"><path d="M19.08 3.979a1.994 1.994 0 00-1.7-.995H4.58L4 .737A.994.994 0 003 0H1a.992.992 0 100 1.99h1.24L5 12.193a.995.995 0 001 .736h9a1.005 1.005 0 00.89-.547l3.28-6.524a1.98 1.98 0 00-.09-1.88zm-4.7 6.962H6.76L5.13 4.973h12.25l-3 5.968zM5.5 17.903c.828 0 1.5-.668 1.5-1.492s-.672-1.492-1.5-1.492S4 15.587 4 16.41s.672 1.492 1.5 1.492zm10 0c.828 0 1.5-.668 1.5-1.492s-.672-1.492-1.5-1.492-1.5.668-1.5 1.492.672 1.492 1.5 1.492z" fill="#5B40D7"/></svg>