<svg width="23" height="8" fill="none" xmlns="http://www.w3.org/2000/svg"><path d="M10.066 7.876H8.28l1.117-6.868h1.787l-1.117 6.868zM6.78 1.009L5.078 5.737l-.202-1.023-.606-3.087s-.075-.618-.851-.618H.61l-.032.117s.862.181 1.872.788l1.553 5.974h1.861l2.83-6.879H6.78zM20.83 7.876h1.638l-1.426-6.868h-1.436c-.659 0-.83.511-.83.511l-2.669 6.357h1.862l.372-1.022h2.276l.213 1.022zm-1.968-2.428l.936-2.566.532 2.566h-1.468zM16.256 2.659l.256-1.48S15.724.88 14.905.88c-.882 0-2.988.384-2.988 2.279 0 1.778 2.467 1.8 2.467 2.726 0 .926-2.212.766-2.946.18l-.266 1.545s.798.383 2.021.383c1.223 0 3.063-.628 3.063-2.353 0-1.789-2.489-1.949-2.489-2.726-.02-.777 1.723-.67 2.49-.255z" fill="#fff"/><path d="M4.876 4.714L4.27 1.627s-.075-.618-.851-.618H.61l-.032.117s1.35.277 2.648 1.331C4.461 3.47 4.876 4.714 4.876 4.714z" fill="#F9A533"/></svg>