<svg width="23" height="8" viewBox="0 0 23 8" fill="none" xmlns="http://www.w3.org/2000/svg">
<path d="M10.0662 7.87589H8.27936L9.39612 1.00806H11.1829L10.0662 7.87589Z" fill="white"/>
<path d="M6.7797 1.00903L5.07798 5.73666L4.8759 4.71447L4.26966 1.62661C4.26966 1.62661 4.19521 1.00903 3.41879 1.00903H0.610947L0.579041 1.12616C0.579041 1.12616 1.44054 1.30717 2.45094 1.9141L4.00376 7.88752H5.86503L8.69415 1.00903H6.7797Z" fill="white"/>
<path d="M20.8296 7.87589H22.4675L21.0423 1.00806H19.6065C18.9471 1.00806 18.7769 1.51915 18.7769 1.51915L16.1073 7.87589H17.9686L18.3408 6.8537H20.6169L20.8296 7.87589ZM18.862 5.44819L19.7979 2.88207L20.3297 5.44819H18.862Z" fill="white"/>
<path d="M16.2562 2.65855L16.5115 1.17851C16.5115 1.17851 15.7244 0.880371 14.9055 0.880371C14.0227 0.880371 11.9168 1.26369 11.9168 3.159C11.9168 4.93718 14.3843 4.95848 14.3843 5.88483C14.3843 6.81119 12.1721 6.65148 11.4382 6.06585L11.1723 7.60978C11.1723 7.60978 11.97 7.9931 13.1931 7.9931C14.4162 7.9931 16.2562 7.36488 16.2562 5.63994C16.2562 3.85111 13.7674 3.69139 13.7674 2.9141C13.7462 2.13681 15.4904 2.24329 16.2562 2.65855Z" fill="white"/>
<path d="M4.87587 4.71447L4.26964 1.62661C4.26964 1.62661 4.19519 1.00903 3.41878 1.00903H0.610946L0.579041 1.12616C0.579041 1.12616 1.92978 1.403 3.22734 2.45713C4.46108 3.46868 4.87587 4.71447 4.87587 4.71447Z" fill="#F9A533"/>
</svg>
